#!OML:ASF H:\Terrain\Walking\May29\JustinRory\Justin.ASF
:FULLY-SPECIFIED
:DEGREES
285
root 12.2816 9.77179 8.09352 -44.4248 -64.8314 7.29696
lowerback 41.0558 -2.50489 -5.85769
upperback 15.5694 -7.27496 -0.348999
thorax -1.68551 -4.76234 5.16321
lowerneck 11.4978 -18.8841 -21.3259
upperneck 0.160954 -28.2501 21.5548
head 4.37246 -14.633 8.26047
rclavicle 7.84206e-014 -5.56597e-014
rhumerus -45.366 28.6746 -101.041
rradius 66.7263
rwrist -16.579
rhand -18.1284 29.6819
rfingers 7.12502
rthumb 8.14641 -0.141056
lclavicle 7.84206e-014 -5.56597e-014
lhumerus -38.5808 -7.39335 95.5076
lradius 46.6643
lwrist 20.3891
lhand -18.3587 25.2676
lfingers 7.12502
lthumb 7.92418 55.0991
rfemur -53.2016 -9.81724 6.51739
rtibia 96.3098
rfoot 0.415091 14.7969
rtoes 7.20692
lfemur -53.0899 12.7429 -14.1073
ltibia 100.153
lfoot -6.19753 -20.639
ltoes 1.52068
286
root 12.2854 9.81215 8.1075 -39.7313 -66.4779 2.46747
lowerback 40.8313 -3.19803 -3.21597
upperback 15.5611 -7.09312 -0.0265925
thorax -1.87848 -4.54501 4.1133
lowerneck 11.6235 -19.0235 -21.1777
upperneck 0.0503139 -28.4535 21.784
head 4.37961 -14.7478 8.29094
rclavicle 4.83047e-014 -6.75868e-015
rhumerus -45.1381 28.2958 -100.924
rradius 66.6866
rwrist -15.8677
rhand -17.0141 29.8766
rfingers 7.12502
rthumb 9.22174 0.0982921
lclavicle 4.83047e-014 -6.75868e-015
lhumerus -38.7009 -7.8826 95.5101
lradius 46.6704
lwrist 20.3313
lhand -18.2189 25.2781
lfingers 7.12502
lthumb 8.05909 55.1045
rfemur -52.8698 -9.70248 9.63654
rtibia 95.8807
rfoot -0.341523 14.2851
rtoes 3.25333
lfemur -53.403 13.0442 -11.2179
ltibia 100.371
lfoot -6.43953 -21.2278
ltoes 1.59856
287
root 12.283 9.75201 8.07821 -51.3898 -64.6247 14.9596
lowerback 41.3001 -0.63422 -9.28898
upperback 15.3301 -6.3782 -1.01518
thorax -1.8236 -4.44066 5.89042
lowerneck 11.5803 -19.0481 -21.1555
upperneck -0.00610143 -28.4765 21.8519
head 4.38234 -14.7599 8.30015
rclavicle 2.5842e-015 -8.74653e-014
rhumerus -45.1209 28.7858 -100.96
rradius 66.7717
rwrist -15.8985
rhand -16.064 29.8643
rfingers 7.12502
rthumb 10.1384 0.128596
lclavicle 2.5842e-015 -8.74653e-014
lhumerus -38.7062 -7.72402 95.3913
lradius 46.6513
lwrist 20.3118
lhand -18.306 25.1809
lfingers 7.12502
lthumb 7.97504 55.0104
rfemur -54.6434 -8.76793 4.17922
rtibia 96.5892
rfoot 0.5023 15.6494
rtoes 1.93549
lfemur -52.4745 14.3994 -16.7047
ltibia 100.048
lfoot -6.49278 -19.9942
ltoes 2.19461
288
root 12.2777 9.79356 8.08101 -45.8446 -67.0379 9.20517
lowerback 40.9529 -1.53989 -6.33059
upperback 15.433 -6.28867 -0.434374
thorax -1.87353 -4.28588 4.98917
lowerneck 11.5325 -19.0546 -21.2968
upperneck -0.17617 -28.4712 21.922
head 4.36926 -14.7578 8.33378
rclavicle 5.96354e-016 -6.75868e-015
rhumerus -45.017 29.4352 -100.901
rradius 66.7242
rwrist -16.323
rhand -15.7309 30.0933
rfingers 7.12502
rthumb 10.4598 0.373504
lclavicle 5.96354e-016 -6.75868e-015
lhumerus -38.6715 -7.48962 95.3931
lradius 46.5835
lwrist 20.3378
lhand -18.3732 25.1736
lfingers 7.12502
lthumb 7.91011 55.0056
rfemur -54.2432 -8.24057 8.14573
rtibia 96.2439
rfoot -0.0648322 14.6827
rtoes 0.9764
lfemur -52.9351 15.0094 -12.8106
ltibia 100.335
lfoot -6.20949 -20.8096
ltoes 3.1712
289
root 12.2813 9.73856 8.09054 -49.0644 -66.0794 12.0511
lowerback 41.6768 -0.933354 -7.74754
upperback 15.3498 -6.18237 -0.67121
thorax -2.06706 -4.28666 5.44478
lowerneck 12.1428 -19.0844 -21.645
upperneck -0.707947 -28.6219 22.4285
head 4.28213 -14.8856 8.57284
rclavicle 1.5207e-014 1.15295e-014
rhumerus -45.0315 29.2945 -100.639
rradius 66.6075
rwrist -16.5533
rhand -15.1906 30.3972
rfingers 7.12502
rthumb 10.9809 0.704401
lclavicle 1.5207e-014 1.15295e-014
lhumerus -38.8656 -7.95634 95.6887
lradius 46.5325
lwrist 20.6061
lhand -18.5807 25.2156
lfingers 7.12502
lthumb 7.70987 55.0551
rfemur -54.139 -8.67407 6.44588
rtibia 96.596
rfoot 0.0126462 15.3289
rtoes -0.141176
lfemur -52.4488 14.7995 -14.3328
ltibia 100.337
lfoot -5.60349 -20.4394
ltoes 3.16396
290
root 12.272 9.75447 8.0862 -48.6146 -65.7549 12.1102
lowerback 41.3112 -0.839286 -8.11394
upperback 15.017 -6.1097 -0.523189
thorax -2.28797 -4.22231 5.76868
lowerneck 13.2827 -18.9218 -22.4176
upperneck -1.22052 -28.683 23.0496
head 4.1822 -15.0041 8.96889
rclavicle -1.27222e-014 9.54166e-015
rhumerus -45.4596 29.1895 -100.411
rradius 66.5586
rwrist -16.5228
rhand -14.6047 30.406
rfingers 7.12502
rthumb 11.546 0.744012
lclavicle -1.27222e-014 9.54166e-015
lhumerus -39.4164 -8.21966 96.1614
lradius 46.5842
lwrist 20.8876
lhand -18.8756 24.9399
lfingers 7.12502
lthumb 7.4252 54.7896
rfemur -54.4924 -9.26242 6.16953
rtibia 96.528
rfoot 0.431431 15.5786
rtoes 2.31617
lfemur -52.9593 14.4134 -14.787
ltibia 100.288
lfoot -5.35467 -20.2975
ltoes 2.57107
291
root 12.2658 9.77718 8.08386 -48.4707 -65.428 12.526
lowerback 40.8424 -0.840548 -8.59388
upperback 14.8793 -6.2241 -0.613203
thorax -2.24694 -4.27489 5.94005
lowerneck 13.3609 -18.8489 -22.7084
upperneck -1.18154 -28.6742 23.2987
head 4.26417 -15.0121 9.07745
rclavicle 2.89232e-014 -1.47101e-014
rhumerus -45.5208 29.3772 -100.565
rradius 66.3217
rwrist -16.0878
rhand -14.7548 30.6434
rfingers 7.12502
rthumb 11.4012 0.973387
lclavicle 2.89232e-014 -1.47101e-014
lhumerus -39.6418 -8.07291 96.1386
lradius 46.7075
lwrist 20.8905
lhand -18.9331 24.594
lfingers 7.12502
lthumb 7.36975 54.4456
rfemur -54.9443 -9.71202 5.68251
rtibia 96.5709
rfoot 0.978179 15.7507
rtoes 6.33032
lfemur -53.4091 14.1167 -15.3838
ltibia 100.139
lfoot -5.1797 -20.0941
ltoes 3.15337
292
root 12.2719 9.78147 8.09023 -49.1529 -65.0143 13.1666
lowerback 41.0291 -0.820771 -8.962
upperback 14.9437 -6.39543 -0.942823
thorax -2.20021 -4.36997 5.83201
lowerneck 13.0191 -18.8704 -22.381
upperneck -1.25256 -28.6072 23.4966
head 4.26782 -14.9699 9.07782
rclavicle -6.95746e-016 2.8625e-014
rhumerus -45.1072 29.2663 -100.856
rradius 65.9905
rwrist -15.8689
rhand -14.6472 30.8489
rfingers 7.12502
rthumb 11.505 1.18462
lclavicle -6.95746e-016 2.8625e-014
lhumerus -39.551 -8.11625 95.7891
lradius 46.6926
lwrist 20.7563
lhand -18.8643 24.4989
lfingers 7.12502
lthumb 7.43609 54.3482
rfemur -54.8513 -10.2394 5.03348
rtibia 96.5911
rfoot 1.13022 16.056
rtoes 6.90277
lfemur -53.1962 13.7703 -15.9785
ltibia 99.9815
lfoot -5.15955 -19.8522
ltoes 3.77929
293
root 12.2788 9.79072 8.09066 -49.0247 -65.0335 12.9674
lowerback 41.3057 -0.743007 -9.30615
upperback 14.8584 -6.46942 -0.914164
thorax -2.3244 -4.41668 6.07423
lowerneck 13.3039 -18.7012 -22.0264
upperneck -1.80133 -28.2928 23.597
head 3.95658 -14.8464 9.1944
rclavicle 3.13583e-014 -2.0276e-014
rhumerus -45.0578 29.6308 -101.148
rradius 65.8895
rwrist -15.673
rhand -15.1909 30.8982
rfingers 7.12502
rthumb 10.9806 1.20538
lclavicle 3.13583e-014 -2.0276e-014
lhumerus -39.595 -7.81473 95.6561
lradius 46.6927
lwrist 20.6272
lhand -18.8844 24.4313
lfingers 7.12502
lthumb 7.41671 54.2813
rfemur -54.8297 -10.5072 5.02384
rtibia 96.5556
rfoot 1.63012 16.1919
rtoes 9.26292
lfemur -53.0728 13.6476 -15.9076
ltibia 99.8986
lfoot -5.45219 -19.8082
ltoes 3.32786
294
root 12.2869 9.80519 8.08806 -48.5021 -65.3246 12.5812
lowerback 41.2252 -0.695955 -9.59724
upperback 14.8461 -6.51288 -0.791995
thorax -2.26358 -4.46445 6.35869
lowerneck 13.2864 -18.6845 -21.5522
upperneck -2.16358 -28.1147 23.3708
head 3.7074 -14.7572 9.13184
rclavicle 1.36664e-014 -1.07344e-014
rhumerus -44.8254 30.4773 -101.489
rradius 65.4601
rwrist -14.9639
rhand -17.1638 31.492
rfingers 7.12502
rthumb 9.07729 1.70736
lclavicle 1.36664e-014 -1.07344e-014
lhumerus -39.4724 -7.34017 95.4867
lradius 46.6954
lwrist 20.4471
lhand -18.8045 24.2104
lfingers 7.12502
lthumb 7.49389 54.0576
rfemur -55.1246 -10.1692 4.99139
rtibia 96.5675
rfoot 3.37855 15.9414
rtoes 19.7587
lfemur -53.209 13.7435 -15.584
ltibia 99.8708
lfoot -5.68994 -19.927
ltoes 2.71316
295
root 12.2758 9.79504 8.09574 -48.4568 -65.3958 12.6509
lowerback 40.9181 -0.629843 -9.15976
upperback 15.0031 -6.22301 -0.842482
thorax -2.09309 -4.31242 5.96936
lowerneck 13.0288 -19.2201 -21.343
upperneck -2.27021 -28.7357 23.2397
head 3.79938 -15.0428 8.92141
rclavicle 1.31695e-014 -1.92821e-014
rhumerus -43.8708 29.7855 -101.133
rradius 64.5349
rwrist -14.4399
rhand -18.2449 32.2341
rfingers 7.12502
rthumb 8.03401 2.40681
lclavicle 1.31695e-014 -1.92821e-014
lhumerus -39.209 -8.22903 95.6885
lradius 46.6001
lwrist 20.4492
lhand -18.5396 24.1975
lfingers 7.12502
lthumb 7.74955 54.0355
rfemur -55.2107 -10.2996 5.11643
rtibia 96.5201
rfoot 3.41216 16.0531
rtoes 19.5337
lfemur -53.4077 13.8073 -15.5798
ltibia 100.037
lfoot -5.92914 -19.9379
ltoes 2.72397
